<?xml version="1.0" encoding="utf-8"?>
<svg xmlns="http://www.w3.org/2000/svg" xmlns:xlink="http://www.w3.org/1999/xlink" version= "1.1" width="720px" height="1424px" viewBox="0 0 720 1424">
<g id="layer1">
<g>
<g style="fill:rgb(0,0,0); fill-opacity:1.0; stroke-linejoin: miter">
<path d="M493.84048,900.2948L493.8403,900.29553L493.84012,900.2962L493.84055,900.2956L493.84036,900.2962C496.09714,900.2267,498.57437,900.09827,499.33438,900.06744C502.35,899.94556,511.06107,899.9936,513.84674,900.1061C515.51825,900.1738,518.5252,900.2232,520.55975,900.21844C525.0854,900.2084,545.94366,901.3328,551.3642,901.8004C553.52765,901.98663,556.0114,902.159,556.946,902.2155C557.86115,902.2704,560.4766,902.54016,562.7984,902.80365C565.13617,903.06915,568.3105,903.4067,569.9388,903.55505C577.83746,904.27637,605.122,913.8359,613.3483,918.7585C623.2089,924.6584,626.52924,926.5653,629.36163,927.9629C631.0643,928.8029,634.1827,930.50977,636.332,931.7569C638.4272,932.9721,643.04315,935.1737,646.59796,936.6302C655.3143,939.7666,665.88617,940.89246,665.88617,940.89246C668.9393,941.2178,673.8576,941.76447,679.1723,942.3464C687.14374,943.21875,689.4266,943.4179,691.2159,943.5192C692.2701,943.5788,694.22955,943.78687,695.44135,943.9473C699.7564,944.5184,703.5302,944.8502,704.8868,944.85254C705.6236,944.8538,707.9858,945.0617,710.1297,945.27106C717.4899,945.9899,667.4234,940.67126,710.585,945.5366L734.2309,945.12164C753.83075,865.79144,744.8343,866.67847,744.8343,866.67847C743.99347,866.76105,742.85333,866.94635,742.2652,867.0303C741.70734,867.1096,740.72235,867.1443,740.1849,867.1663C739.62213,867.1897,736.0013,867.49817,732.1573,867.82654C728.31305,868.1551,723.31146,868.5062,721.05536,868.57404C718.7989,868.642,715.7255,868.75195,714.2049,868.81396C705.9766,869.14795,699.72943,868.8472,690.8897,867.7817C687.4023,867.36115,680.70087,864.7799,678.3901,862.9172C675.35114,860.4684,672.69904,857.54346,670.73285,854.4647C668.7944,851.4292,667.5726,849.72845,666.3851,848.4487C666.0015,848.03577,664.4722,846.07764,662.98846,844.1538C655.98456,835.07184,648.5787,829.25116,630.17706,818.2096C616.8619,810.2196,605.9412,800.6498,598.90875,790.906C597.60004,789.09296,596.014,787.0303,595.4632,786.3895C594.61847,785.40625,589.54156,777.31836,586.8326,772.6255C586.07074,771.3054,580.7734,761.04034,577.4108,754.2966C575.00446,749.4706,571.43195,745.3537,569.37225,745.0872C565.1917,744.54694,559.9654,748.25146,558.09283,753.0636C557.06537,755.70404,556.34235,762.4813,556.98517,763.37555C557.2205,763.703,557.2165,764.34393,557.03375,764.8136C556.623,765.8699,558.4277,772.8588,560.8422,779.3366C562.7585,784.47656,568.9008,796.8076,572.3792,802.475C573.5323,804.3532,574.65485,806.1917,574.8499,806.5445C576.08246,808.7744,583.6535,820.0385,583.94696,820.15265C584.12286,820.22107,584.8732,821.208,585.5931,822.34717C587.59174,825.5092,593.66,833.392,594.24677,833.62054C594.5992,833.75726,595.0855,834.56445,595.3975,835.3521C595.972,836.80145,595.56366,836.836,583.2198,836.0862C576.2231,835.6611,569.7631,835.2653,568.8284,835.21545C559.7011,834.7284,545.1148,829.82996,538.32916,825.03644C533.4018,821.55554,526.29803,815.9877,524.51044,814.186C523.67706,813.346,522.71747,812.54193,522.3654,812.405C522.01324,812.26794,521.3509,811.72925,520.8918,811.1559C520.48676,810.6499,518.32733,808.5739,516.1358,806.5349C510.58817,801.37317,508.9869,799.90137,503.46176,794.30566C501.61996,792.44037,499.9443,790.8423,499.6509,790.72815C499.3575,790.61383,498.5457,789.90533,497.7996,789.06165C495.44894,786.4032,492.92294,784.05566,492.10135,783.7359C491.63205,783.5533,491.17612,783.0704,490.95706,782.6828C490.73416,782.28754,489.26865,780.94446,487.73666,779.67267C486.20438,778.40076,484.37332,776.8664,483.71725,776.28436C483.01706,775.6631,480.31467,773.90424,477.6929,772.3184C473.42297,769.7358,472.43274,769.3581,468.04617,768.63184C457.32434,766.85693,450.99753,769.42163,451.80774,775.2861C452.28976,778.7758,454.99188,781.49506,463.5427,787.1505C473.85416,793.97046,481.20078,800.9817,484.79306,807.3793C487.7064,812.5676,495.7137,823.6293,501.012,829.772C507.8201,837.6651,507.65866,838.39044,499.6611,835.3274C496.66153,834.17834,491.9899,832.8151,489.22513,832.27985C486.46048,831.7451,483.36642,831.01416,482.42758,830.6486C479.66946,829.57544,471.64954,828.462,465.438,828.29407C455.60165,828.0281,446.4707,829.62787,440.58292,832.60864C434.77435,835.5496,433.07697,839.1677,435.21713,843.9671C436.5774,847.0173,437.63693,847.48303,441.35904,846.76245C442.97113,846.4504,444.62915,846.34534,445.04,846.5054C445.45065,846.6651,446.1289,846.6587,446.53665,846.4797C447.67773,845.9779,463.27902,846.17065,464.68738,846.7185C465.33304,846.97003,467.19498,847.20856,468.86707,847.264C472.13116,847.3725,487.35672,853.0513,491.59702,855.7037C493.93204,857.164,494.1083,858.9698,491.85733,858.5074C491.16776,858.36597,487.88834,858.1368,484.62582,857.9911C462.38562,856.9968,449.16254,861.0856,453.15735,867.8408C454.66418,870.38885,455.9564,871.2584,458.96985,871.65656C461.74075,872.02277,467.39944,872.9193,476.4677,874.61444C479.43002,875.1678,483.09293,875.7946,484.69064,876.0575C487.6028,876.536,492.35507,877.54047,499.95828,879.3636C502.3054,879.92633,505.55545,880.6215,507.1409,880.87506C511.15372,881.51605,518.20404,883.5874,518.71466,884.29755C519.0822,884.8089,514.3483,886.31445,513.4681,885.9718C513.2923,885.9032,511.98453,886.1377,510.60855,886.5482C509.23245,886.9591,507.92514,887.19366,507.74905,887.12494C507.5143,887.0336,506.01407,887.37494,504.42325,887.85815C502.79562,888.3525,501.27383,888.65955,501.0392,888.5681C500.74557,888.45404,499.2521,888.8188,497.749,889.3825C496.2457,889.94586,494.1428,890.4521,493.16446,890.5715C491.2338,890.80695,485.32242,893.53326,484.97977,894.41376C484.8657,894.7071,484.9979,895.6652,485.29257,896.5622C486.14206,899.15186,489.1293,900.4208,493.84048,900.2948L493.84055,900.2956L493.84048,900.2948L493.8403,900.29553L493.84048,900.2948 Z"/>
</g>
<g style="fill:rgb(0,0,0); fill-opacity:1.0; stroke-linejoin: miter">
<path d="M688.15753,853.05695L745.04486,850.9353L801.9326,848.81415Q804.0475,905.51447,806.16223,962.21436Q749.2746,964.33734,692.38727,966.459Q690.2723,909.7581,688.15753,853.05695 Z"/>
</g>
<g style="fill:rgb(0,0,0); fill-opacity:1.0; stroke-linejoin: miter">
<path d="M672.28644,855.19434L694.9462,855.2994L717.60626,855.4041Q717.36993,906.57306,717.1335,957.74176Q694.4737,957.6375,671.8138,957.5334Q672.05,906.3637,672.28644,855.19434 Z"/>
</g>
<g>
<g style="fill:rgb(0,0,0); fill-opacity:1.0; stroke-linejoin: miter">
<path d="M539.9576,588.1297L494.31393,588.75745L494.56412,606.96075Q479.43597,613.41907,470.11346,627.13416Q460.7916,640.8495,461.03055,658.2379Q461.1838,669.3765,465.6691,679.3699Q470.15057,689.09076,477.58698,696.3256Q485.02347,703.56067,495.1356,707.7692Q504.54233,711.79614,515.1359,711.8338Q515.62445,711.8354,516.1152,711.8287L517.7453,711.80646Q521.013,712.3048,523.2203,714.72015Q525.4273,717.13544,525.47565,720.66724Q525.528,724.47095,522.84894,727.2256Q520.16925,729.97974,516.3658,730.03174Q516.2741,730.03326,516.18304,730.0329Q512.4958,730.0199,509.80777,727.4048Q507.0533,724.72504,507.001,720.9214L461.90118,721.54083Q462.0209,730.2353,464.8462,738.07684Q467.3958,745.65045,472.10794,752.37915Q476.54468,758.84064,482.86447,763.917Q489.1805,768.7212,496.82877,771.60547L497.11264,792.2539L542.7563,791.62634L542.4383,768.5326Q555.38226,761.2892,563.0859,748.41144Q570.79266,735.8054,570.57574,720.047Q570.4224,708.90814,565.9373,698.9155Q561.456,689.19434,554.0196,681.9595Q546.5832,674.725,536.47076,670.51624Q527.06415,666.489,516.4704,666.4513Q515.982,666.4497,515.49115,666.4562L513.8609,666.47876Q510.59317,665.9801,508.38248,663.2933Q506.17532,660.878,506.13052,657.61743Q506.07816,653.81415,508.75406,650.788Q511.43332,648.0338,515.237,647.98126Q515.3201,647.9802,515.4028,647.98035Q519.101,647.99347,521.79877,650.8804Q524.55304,653.56006,524.6054,657.3635L569.70526,656.74347Q569.4886,640.98566,561.434,628.3245Q553.37946,615.66315,540.2415,608.77905L539.9576,588.1297 Z"/>
</g>
</g>
</g>
<g>
<g style="fill:rgb(0,0,0); fill-opacity:1.0; stroke-linejoin: miter">
<path d="M256.1419,894.89886L256.1421,894.8996L256.14236,894.9004L256.14197,894.8996L256.14212,894.9005C253.8844,894.8924,251.40445,894.83185,250.64374,894.8218C247.62595,894.7822,238.91931,895.06824,236.13791,895.2567C234.4686,895.3703,231.46439,895.5015,229.43015,895.55237C224.90604,895.6659,204.08617,897.35956,198.68031,897.9745C196.52283,898.2199,194.04459,898.4599,193.112,898.54193C192.19864,898.6218,189.59145,898.9629,187.27779,899.2896C184.94815,899.6188,181.78409,900.0428,180.16061,900.23566C172.28456,901.17224,145.27094,911.4732,137.18214,916.6182C127.486115,922.78577,124.219055,924.7826,121.42586,926.2568C119.7469,927.14307,116.67618,928.93427,114.56186,930.2393C112.500565,931.5118,107.94656,933.8383,104.432724,935.3912C95.80516,938.7644,85.26792,940.17847,85.26792,940.17847C82.22468,940.587,77.32326,941.2679,72.02649,941.99457C64.081566,943.08435,61.805,943.3458,60.019135,943.49585C58.967087,943.58405,57.013954,943.8455,55.80684,944.03894C51.50901,944.7279,47.745594,945.1626,46.389606,945.20197C45.652996,945.22345,43.297497,945.49554,41.16007,945.7638C33.82223,946.68286,83.72526,939.99915,40.71214,946.0417L17.063837,946.2722C-4.694306,867.506,4.3231053,868.1467,4.3231053,868.1467C5.165673,868.2066,6.310479,868.3608,6.900716,868.42847C7.4604006,868.4927,8.445954,868.5004,8.984033,868.50793C9.547139,868.51587,13.174917,868.72534,17.026587,868.9488C20.878351,869.17224,25.887566,869.3865,28.144798,869.39264C30.402287,869.399,33.477383,869.425,34.99925,869.44556C43.233807,869.5546,49.4702,869.0836,58.277733,867.77716C61.752373,867.2615,68.38085,864.4982,70.63998,862.5733C73.61075,860.0421,76.18218,857.0461,78.063545,853.9148C79.91848,850.8272,81.09326,849.0937,82.24572,847.78217C82.617714,847.3589,84.09295,845.3598,85.523735,843.39606C92.27705,834.1264,99.5211,828.10565,117.61432,816.56573C130.70674,808.21533,141.36192,798.3511,148.12573,788.4186C149.38452,786.57043,150.91373,784.4654,151.44656,783.80994C152.26427,782.8038,157.11852,774.58044,159.69841,769.8153C160.42413,768.4749,165.43936,758.0691,168.61655,751.23566C170.89005,746.3459,174.34856,742.1329,176.4003,741.8104C180.56451,741.1561,185.89032,744.71674,187.89352,749.4758C188.99255,752.0874,189.90031,758.8426,189.28207,759.7541C189.05574,760.0877,189.07735,760.7285,189.27267,761.1929C189.7123,762.2375,188.09924,769.27313,185.8624,775.81433C184.08728,781.0047,178.28387,793.4987,174.9613,799.25934C173.85997,801.1684,172.78815,803.03687,172.60286,803.3949C171.43152,805.65753,164.17072,817.1239,163.88063,817.246C163.70647,817.3193,162.98358,818.3264,162.29498,819.4847C160.38348,822.70013,154.53227,830.74585,153.95203,830.99005C153.60365,831.1369,153.1396,831.9567,152.84904,832.7528C152.31448,834.2171,152.7236,834.2406,165.04263,833.154C172.02515,832.53815,178.47177,831.96625,179.40465,831.8908C188.51553,831.15466,202.9627,825.8598,209.61507,820.88257C214.44539,817.26855,221.39432,811.5089,223.13217,809.65924C223.9424,808.7969,224.87975,807.9668,225.228,807.8204C225.57623,807.67365,226.22379,807.117,226.66693,806.53143C227.05807,806.01434,229.15994,803.8803,231.29489,801.782C236.69934,796.4707,238.25989,794.95593,243.63028,789.2115C245.42035,787.2963,247.05179,785.653,247.34195,785.53125C247.63211,785.40894,248.4245,784.6785,249.14722,783.81464C251.42438,781.09296,253.88538,778.6776,254.69785,778.3356C255.16208,778.14014,255.60461,777.645,255.81299,777.2517C256.0252,776.85016,257.45352,775.4677,258.95004,774.1545C260.44705,772.8415,262.23563,771.2576,262.8755,770.6576C263.5584,770.01746,266.21176,768.1854,268.78925,766.5286C272.98712,763.83057,273.96667,763.42584,278.33173,762.58014C289.00113,760.51337,295.39563,762.9042,294.74582,768.7886C294.35934,772.2906,291.7324,775.0823,283.33926,780.9689C273.21774,788.06793,266.06525,795.27747,262.64908,801.7704C259.8785,807.0364,252.17606,818.3127,247.04745,824.59766C240.45746,832.6736,240.6387,833.3944,248.54947,830.1144C251.51663,828.88385,256.14926,827.3935,258.89853,826.783C261.64746,826.1728,264.72034,825.3577,265.649,824.9668C268.37677,823.81866,276.36334,822.4866,282.56808,822.14923C292.39334,821.61475,301.5646,822.9646,307.5316,825.7836C313.4183,828.56476,315.21387,832.13544,313.20557,836.9914C311.929,840.0777,310.8826,840.572,307.1421,839.95355C305.52213,839.68567,303.86185,839.6262,303.4555,839.7972C303.0493,839.9681,302.37125,839.9802,301.95883,839.8122C300.80444,839.3417,285.21426,839.96,283.82138,840.5465C283.18286,840.8153,281.32812,841.1046,279.6581,841.20605C276.39816,841.40344,261.33334,847.49554,257.16696,850.26294C254.87265,851.78656,254.7457,853.59644,256.98328,853.0728C257.66885,852.91266,260.94064,852.59393,264.19797,852.35913C286.40286,850.75836,299.73276,854.4844,295.9238,861.34625C294.48706,863.9343,293.21906,864.83923,290.21756,865.3192C287.4579,865.76105,281.82562,866.81104,272.80698,868.7535C269.86093,869.3876,266.21646,870.1143,264.6266,870.42053C261.7285,870.97833,257.00552,872.112,249.45474,874.14197C247.12402,874.7688,243.89417,875.5525,242.31625,875.8491C238.32233,876.5997,231.33118,878.86285,230.84015,879.58673C230.4866,880.1075,235.25958,881.4837,236.1304,881.1172C236.30432,881.0439,237.61795,881.2427,239.00455,881.61554C240.39136,881.9884,241.70459,882.18713,241.87878,882.11365C242.11087,882.01587,243.61996,882.31616,245.22348,882.75586C246.86407,883.20544,248.39359,883.47076,248.62576,883.37286C248.91602,883.25073,250.41888,883.5747,251.93698,884.09717C253.45496,884.6193,255.57098,885.0678,256.5522,885.1604C258.4885,885.34326,264.47214,887.90765,264.83865,888.7785C264.96063,889.06854,264.8546,890.0298,264.58466,890.9346C263.8061,893.5462,260.85483,894.8958,256.1419,894.89886L256.14197,894.8996L256.1419,894.89886L256.1421,894.8996L256.1419,894.89886 Z"/>
</g>
<g style="fill:rgb(0,0,0); fill-opacity:1.0; stroke-linejoin: miter">
<path d="M60.60704,852.9832L3.6825566,852.4156L-53.242054,851.84814Q-53.808235,908.5853,-54.374535,965.3224Q2.5502322,965.89105,59.47451,966.459Q60.040825,909.7213,60.60704,852.9832 Z"/>
</g>
<g style="fill:rgb(0,0,0); fill-opacity:1.0; stroke-linejoin: miter">
<path d="M76.53056,854.6864L53.881958,855.41003L31.233124,856.13336Q32.866364,907.2771,34.49937,958.4207Q57.148033,957.69775,79.796745,956.9749Q78.16363,905.8306,76.53056,854.6864 Z"/>
</g>
<g style="fill:rgb(0,0,0); fill-opacity:1.0; stroke-linejoin: miter">
<path d="M256.58844,737.15155L185.31165,737.3786L185.34888,749.0847L256.62573,748.8572L256.58844,737.15155"/>
</g>
<g style="fill:rgb(0,0,0); fill-opacity:1.0; stroke-linejoin: miter">
<path d="M256.66412,760.9102L185.38727,761.13715L185.42503,773.0174L256.70203,772.78986L256.66412,760.9102"/>
</g>
<g style="fill:rgb(0,0,0); fill-opacity:1.0; stroke-linejoin: miter">
<path d="M244.86032,784.70734L197.3427,784.8582L197.38046,796.73816L244.89813,796.5863L244.86032,784.70734 Z"/>
</g>
<g style="fill:rgb(0,0,0); fill-opacity:1.0; stroke-linejoin: miter">
<path d="M220.15332,475.67813L226.03076,475.8624Q245.21066,477.5668,248.94095,479.89798Q256.51175,482.4874,263.99445,486.73526Q278.9597,495.23117,293.57297,510.36182Q320.01144,541.22577,314.0059,582.13257Q310.7907,599.6492,302.1269,613.1986Q274.67352,650.3488,266.9087,666.861Q255.74963,693.4819,256.52267,713.6614L184.97511,713.53375Q185.8605,693.9544,173.87996,666.499Q167.83308,654.84125,164.0485,648.49744L138.4633,613.72003Q134.82587,608.4073,130.62088,598.0898Q123.355484,581.58606,125.974304,554.9994Q130.21542,533.1515,137.4812,522.9347Q145.1705,510.30096,157.57825,499.63068Q186.74852,475.27283,220.15332,475.67813 M219.86827,464.1668L213.02599,464.38284Q167.34322,466.75165,134.7997,505.4303Q120.321686,523.7382,115.145706,546.12274Q110.99075,563.46027,114.79706,585.80096Q119.32024,605.67487,126.143814,616.88153L155.6157,659.2395Q160.96915,667.9112,163.12633,673.5931Q172.43236,692.0658,172.87326,725.2789L268.25552,724.9744Q266.17258,702.989,277.0316,673.0019Q281.77136,662.3271,282.67288,661.141L313.697,617.20557Q319.10657,606.7308,322.73032,595.629Q330.65527,570.1877,324.6641,545.1925Q315.62344,509.08728,284.0665,485.40652Q274.5643,477.14624,249.73135,468.362Q235.33203,464.1664,219.86827,464.1668 Z"/>
</g>
<g style="fill:rgb(0,0,0); fill-opacity:1.0; stroke-linejoin: miter">
<path d="M-11.588395,436.74072L-11.588332,436.7408L-11.588283,436.74094L-11.588332,436.7408L-11.588395,436.74072L-11.588332,436.7408L-11.588283,436.74094Q-11.588332,436.7408,-11.588395,436.74072"/>
</g>
<g style="fill:rgb(0,0,0); fill-opacity:1.0; stroke-linejoin: miter">
<path d="M-11.588395,436.74072L-11.588332,436.7408L-11.588283,436.74094L-11.588332,436.7408L-11.588395,436.74072L-11.588332,436.7408L-11.588283,436.74094Q-11.588332,436.7408,-11.588395,436.74072"/>
</g>
</g>
</g>
</svg>