<?xml version='1.0' encoding='utf-8'?>
<svg xmlns="http://www.w3.org/2000/svg" viewBox="0 0 546 546" height="546" width="546" id="svg2" version="1.1"><metadata id="metadata8"/><defs id="defs6"/><g transform="matrix(1.3333333,0,0,-1.3333333,0,546)" id="g10"><g transform="scale(0.1)" id="g12"><path id="path14" style="fill:#f9db68;fill-opacity:1;fill-rule:nonzero;stroke:none" d="M 2053.24,660.762 C 1284.19,660.781 660.777,1284.19 660.762,2053.24 v 0 0 0 c 0,76.47 6.16,151.46 18.019,224.58 1.699,-1.15 3.414,-2.28 5.129,-3.41 l 12.535,-8.24 8.239,12.54 35.062,53.34 c -18.992,-89.94 -28.98,-183.19 -28.984,-278.81 v 0 c 0.011,-370.79 150.222,-706.25 393.198,-949.27 243.03,-242.982 578.49,-393.2 949.28,-393.208 370.8,0.019 706.26,150.226 949.29,393.208 242.98,243.02 393.19,578.48 393.2,949.27 -0.01,370.8 -150.22,706.26 -393.2,949.29 -26.93,26.91 -54.99,52.7 -84.1,77.26 l 126.3,-48.81 c 247.94,-251.42 400.99,-596.73 401,-977.74 C 3445.72,1284.19 2822.3,660.781 2053.24,660.762 m -777.22,2487.228 68.4,104.08 c 60.59,35.9 124.22,67.38 190.27,93.9 l 24.23,-44.17 c -100.86,-39.96 -195.75,-91.81 -282.9,-153.81 m 365.66,183.49 -24.48,44.61 c 114.1,37.6 234.68,60.82 359.69,67.58 l 126.42,-48.85 c -16.62,0.61 -33.3,0.91 -50.07,0.91 -143.6,0 -281.88,-22.53 -411.56,-64.25"/><path id="path16" style="fill:#f9cf3d;fill-opacity:1;fill-rule:nonzero;stroke:none" d="M 2047.5,379.219 C 1126.12,379.242 379.234,1126.12 379.219,2047.5 c 0.004,174.95 26.914,343.55 76.855,502 9.418,-22.73 20.235,-44.94 32.414,-66.48 C 449.863,2344.46 429.223,2198.41 429.219,2047.5 429.23,1600.54 610.313,1196.13 903.203,903.199 1196.13,610.309 1600.54,429.23 2047.5,429.219 c 446.96,0.011 851.37,181.09 1144.3,473.98 292.89,292.931 473.97,697.351 473.98,1144.301 -0.01,446.96 -181.09,851.37 -473.98,1144.3 -19.79,19.79 -40.1,39.07 -60.89,57.82 -0.03,23.52 -1.43,46.92 -4.15,70.07 360.33,-306.01 589.01,-762.41 589.02,-1272.19 v 0 0 0 C 3715.76,1126.12 2968.88,379.23 2047.5,379.219 M 3715.78,2047.5 v 0 0 M 1130.92,3381.37 c -24.3,4.57 -48.76,7.62 -73.22,9.19 155.63,114.9 331.95,203.37 522.34,258.84 l -240.42,-146.24 c -72.8,-35.47 -142.51,-76.22 -208.7,-121.79 m 555.18,243.91 -6.99,11.49 c -9.29,15.27 -24.13,25.14 -40.35,28.57 130.81,32.95 267.7,50.44 408.74,50.44 27.27,0 54.42,-0.65 81.37,-1.95 -17.81,-15.04 -34.84,-31.18 -50.93,-48.33 -10.13,0.19 -20.26,0.28 -30.44,0.28 -124.26,0 -245.2,-13.99 -361.4,-40.5"/><path id="path18" style="fill:#f8c11d;fill-opacity:1;fill-rule:nonzero;stroke:none" d="m 25,2047.5 h 25 c 0.0117,551.67 223.539,1050.89 585.055,1412.45 361.554,361.51 860.765,585.04 1412.445,585.05 551.67,-0.01 1050.89,-223.54 1412.44,-585.05 C 3821.46,3098.39 4044.99,2599.18 4045,2047.5 4044.99,1495.83 3821.46,996.609 3459.94,635.059 3098.39,273.539 2599.17,50.0117 2047.5,50 1495.83,50.0117 996.609,273.539 635.055,635.059 273.539,996.609 50.0117,1495.83 50,2047.5 H 25 0 C 0.015625,916.691 916.688,0.0195313 2047.5,0 3178.31,0.0195313 4094.98,916.691 4095,2047.5 4094.98,3178.31 3178.31,4094.98 2047.5,4095 916.688,4094.98 0.015625,3178.31 0,2047.5 h 25"/><path id="path20" style="fill:#f8f9fc;fill-opacity:1;fill-rule:nonzero;stroke:none" d="m 1050.7,1748.92 c -173.696,556.88 136.93,1149.13 693.81,1322.83 556.88,173.7 1149.13,-136.92 1322.83,-693.8 173.71,-556.89 -136.92,-1149.14 -693.8,-1322.84 -556.87,-173.7 -1149.13,136.92 -1322.84,693.81"/><path id="path22" style="fill:#313543;fill-opacity:1;fill-rule:nonzero;stroke:none" d="m 2097.64,2128.75 c 36.49,-19.81 50.02,-65.46 30.21,-101.96 -19.81,-36.5 -65.47,-50.03 -101.97,-30.22 -36.5,19.82 -50.03,65.47 -30.21,101.97 19.81,36.5 65.46,50.02 101.97,30.21"/><path id="path24" style="fill:#100f0d;fill-opacity:1;fill-rule:nonzero;stroke:none" d="m 2097.64,2128.75 -7.16,-13.18 c 20.11,-10.91 31.47,-31.58 31.49,-52.98 -0.01,-9.7 -2.33,-19.48 -7.3,-28.65 -10.91,-20.11 -31.58,-31.47 -52.98,-31.49 -9.7,0 -19.48,2.33 -28.65,7.31 -20.11,10.9 -31.47,31.58 -31.5,52.97 0.01,9.7 2.34,19.49 7.31,28.65 10.91,20.12 31.58,31.48 52.98,31.5 9.7,-0.01 19.48,-2.34 28.65,-7.31 l 7.16,13.18 7.15,13.19 c -13.63,7.4 -28.43,10.94 -42.96,10.94 -31.98,0.02 -63,-17.1 -79.34,-47.18 -7.41,-13.63 -10.95,-28.43 -10.94,-42.97 -0.03,-31.97 17.09,-63 47.18,-79.34 13.62,-7.4 28.42,-10.95 42.96,-10.94 31.98,-0.02 63,17.09 79.34,47.18 7.4,13.63 10.94,28.43 10.94,42.96 0.02,31.98 -17.09,63 -47.18,79.35 l -7.15,-13.19"/><path id="path26" style="fill:#f8c11d;fill-opacity:1;fill-rule:nonzero;stroke:none" d="m 2072,2037.93 v 0 c -23.9,-7.46 -49.32,5.88 -56.78,29.78 l -187.27,600.38 c -7.46,23.9 5.88,49.32 29.78,56.78 23.91,7.45 49.33,-5.88 56.79,-29.78 l 187.27,-600.38 c 7.45,-23.9 -5.88,-49.33 -29.79,-56.78"/><path id="path28" style="fill:#100f0d;fill-opacity:1;fill-rule:nonzero;stroke:none" d="m 2072,2037.93 -2.98,9.55 c -3.52,-1.1 -7.06,-1.62 -10.54,-1.62 -15.03,0.01 -29.01,9.7 -33.71,24.83 l -187.27,600.37 c -1.1,3.53 -1.62,7.06 -1.62,10.54 0.01,15.03 9.69,29.02 24.83,33.72 3.53,1.1 7.06,1.62 10.54,1.62 15.03,-0.01 29.02,-9.7 33.72,-24.83 l 187.27,-600.38 c 1.1,-3.52 1.61,-7.05 1.61,-10.53 0,-15.03 -9.69,-29.03 -24.82,-33.72 l 2.97,-9.55 2.98,-9.55 c 23.69,7.41 38.88,29.23 38.87,52.82 0,5.47 -0.81,11.03 -2.52,16.49 l -187.27,600.38 c -7.41,23.68 -29.22,38.87 -52.81,38.87 -5.47,0 -11.03,-0.82 -16.49,-2.53 -23.69,-7.4 -38.89,-29.21 -38.88,-52.81 0,-5.47 0.82,-11.03 2.52,-16.49 l 187.27,-600.37 c 7.41,-23.69 29.22,-38.89 52.81,-38.88 5.47,0 11.03,0.82 16.5,2.52 l -2.98,9.55"/><path id="path30" style="fill:#313543;fill-opacity:1;fill-rule:nonzero;stroke:none" d="m 1707.82,3179.77 -49.82,-27.34 -159.88,291.36 49.82,27.34 159.88,-291.36"/><path id="path32" style="fill:#100f0d;fill-opacity:1;fill-rule:nonzero;stroke:none" d="m 1707.82,3179.77 -7.22,13.15 -36.67,-20.12 -145.44,265.06 23.52,12.9 152.66,-278.21 13.15,7.22 -7.22,13.15 7.22,-13.15 13.15,7.21 -167.09,304.52 -76.13,-41.78 174.31,-317.65 76.12,41.77 -7.21,13.14 -13.15,-7.21"/><path id="path34" style="fill:#dedee2;fill-opacity:1;fill-rule:nonzero;stroke:none" d="m 1701.25,3185.24 -49.82,-27.34 -168.31,306.73 49.82,27.33 168.31,-306.72"/><path id="path36" style="fill:#100f0d;fill-opacity:1;fill-rule:nonzero;stroke:none" d="m 1701.25,3185.24 -4.82,8.77 -41.05,-22.53 -158.68,289.19 32.28,17.72 163.5,-297.96 8.77,4.81 -4.82,8.77 4.82,-8.77 8.76,4.81 -173.11,315.49 -67.36,-36.96 177.93,-324.26 67.35,36.96 -4.81,8.77 -8.76,-4.81"/><path id="path38" style="fill:#dedee2;fill-opacity:1;fill-rule:nonzero;stroke:none" d="m 1844.97,1010.67 -26.62,4.33 c -18.28,2.98 -35.51,-9.43 -38.48,-27.711 L 1707.35,541.18 c -2.97,-18.282 9.44,-35.52 27.72,-38.481 l 26.61,-4.328 c 18.29,-2.973 35.52,9.43 38.49,27.711 l 72.53,446.109 c 2.96,18.278 -9.45,35.519 -27.73,38.479"/><path id="path40" style="fill:#100f0d;fill-opacity:1;fill-rule:nonzero;stroke:none" d="m 1844.97,1010.67 2.41,14.81 -26.62,4.33 c -2.62,0.42 -5.24,0.63 -7.84,0.63 -23.43,0 -43.95,-16.93 -47.85,-40.749 L 1692.54,543.59 c -0.42,-2.621 -0.63,-5.238 -0.63,-7.828 0,-23.442 16.93,-43.973 40.75,-47.871 l 26.62,-4.332 c 2.62,-0.418 5.24,-0.629 7.82,-0.629 23.44,0 43.97,16.922 47.88,40.75 l 72.52,446.101 c 0.43,2.617 0.63,5.239 0.63,7.821 0,23.438 -16.92,43.978 -40.76,47.878 l -2.4,-14.81 -2.4,-14.799 c 9.09,-1.441 15.57,-9.391 15.56,-18.269 0,-0.981 -0.08,-1.993 -0.24,-3.012 l -72.52,-446.102 c -1.45,-9.09 -9.39,-15.558 -18.27,-15.558 -0.99,0 -1.99,0.082 -3.01,0.25 l -26.62,4.32 c -9.09,1.441 -15.56,9.391 -15.56,18.262 0,0.98 0.08,1.988 0.24,3.008 l 72.53,446.109 c 1.44,9.09 9.38,15.561 18.24,15.561 0.99,0 1.99,-0.08 3.02,-0.24 l 26.62,-4.329 2.41,14.799"/><path id="path42" style="fill:#dedee2;fill-opacity:1;fill-rule:nonzero;stroke:none" d="m 2824.23,1305.08 -17.45,-20.56 c -11.99,-14.12 -10.27,-35.28 3.85,-47.27 l 344.51,-292.539 c 14.12,-12 35.28,-10.27 47.27,3.84 l 17.45,20.558 c 12,14.121 10.27,35.281 -3.85,47.281 l -344.51,292.54 c -14.12,11.99 -35.28,10.26 -47.27,-3.85"/><path id="path44" style="fill:#100f0d;fill-opacity:1;fill-rule:nonzero;stroke:none" d="m 2824.23,1305.08 -11.44,9.71 -17.45,-20.56 c -7.72,-9.08 -11.55,-20.33 -11.54,-31.4 -0.02,-13.7 5.85,-27.45 17.12,-37.02 l 344.51,-292.54 c 9.08,-7.719 20.33,-11.551 31.4,-11.54 13.7,-0.019 27.44,5.84 37.01,17.11 l 17.46,20.558 c 7.72,9.09 11.55,20.34 11.54,31.403 0.02,13.699 -5.85,27.449 -17.12,37.019 l -344.51,292.54 c -9.08,7.73 -20.33,11.56 -31.4,11.54 -13.7,0.02 -27.44,-5.84 -37.01,-17.11 l 11.43,-9.71 11.43,-9.71 c 3.7,4.34 8.84,6.51 14.15,6.53 4.28,-0.01 8.45,-1.42 11.98,-4.41 l 344.51,-292.54 c 4.34,-3.7 6.52,-8.841 6.54,-14.149 -0.02,-4.27 -1.42,-8.449 -4.41,-11.981 l -17.45,-20.558 c -3.7,-4.332 -8.84,-6.512 -14.15,-6.532 -4.28,0.012 -8.45,1.418 -11.98,4.411 l -344.51,292.539 c -4.35,3.7 -6.52,8.84 -6.54,14.15 0.02,4.28 1.42,8.45 4.41,11.98 l 17.45,20.56 -11.43,9.71"/><path id="path46" style="fill:#dedee2;fill-opacity:1;fill-rule:nonzero;stroke:none" d="m 2460.77,3075.28 8.99,-3.37 c 16.64,-6.26 35.19,2.16 41.44,18.8 l 290.74,773.54 c 6.25,16.64 -2.16,35.19 -18.8,41.45 l -8.98,3.38 c -16.64,6.25 -35.19,-2.17 -41.45,-18.81 l -290.74,-773.54 c -6.26,-16.64 2.16,-35.19 18.8,-41.45"/><path id="path48" style="fill:#100f0d;fill-opacity:1;fill-rule:nonzero;stroke:none" d="m 2460.77,3075.28 -5.27,-14.04 8.98,-3.37 c 5.43,-2.05 11.07,-3.03 16.6,-3.03 19.1,-0.01 37.03,11.68 44.16,30.59 l 290.74,773.55 v 0 c 2.05,5.43 3.03,11.06 3.03,16.59 0.01,19.1 -11.68,37.03 -30.59,44.17 l -8.98,3.38 h -0.01 c -5.43,2.04 -11.06,3.02 -16.59,3.02 -19.1,0.02 -37.04,-11.68 -44.17,-30.59 l -290.74,-773.54 v 0.01 c -2.04,-5.44 -3.03,-11.08 -3.03,-16.61 -0.01,-19.1 11.68,-37.04 30.59,-44.17 l 5.28,14.04 5.28,14.04 c -6.91,2.58 -11.13,9.15 -11.15,16.09 0,1.99 0.35,4.01 1.11,6.04 v 0.01 L 2746.76,3885 v 0 c 2.56,6.9 9.14,11.13 16.08,11.14 2,0 4.02,-0.34 6.05,-1.1 l 8.97,-3.38 c 6.9,-2.57 11.13,-9.15 11.15,-16.09 0,-2 -0.35,-4.02 -1.11,-6.04 l -290.74,-773.55 c -2.57,-6.9 -9.14,-11.12 -16.08,-11.14 -2,0 -4.02,0.35 -6.05,1.11 l -8.98,3.38 -5.28,-14.05"/><path id="path50" style="fill:#dedee2;fill-opacity:1;fill-rule:nonzero;stroke:none" d="m 1158.99,2673.58 5.19,8.09 c 9.59,14.96 5.24,34.86 -9.72,44.46 l -695.651,446.06 c -14.961,9.59 -34.868,5.24 -44.465,-9.72 l -5.18,-8.08 c -9.594,-14.96 -5.242,-34.87 9.723,-44.46 l 695.653,-446.07 c 14.96,-9.59 34.86,-5.24 44.45,9.72"/><path id="path52" style="fill:#100f0d;fill-opacity:1;fill-rule:nonzero;stroke:none" d="m 1158.99,2673.58 12.63,-8.09 5.18,8.08 c 5.04,7.84 7.48,16.73 7.47,25.44 0.02,15.49 -7.69,30.75 -21.71,39.74 l -695.654,446.07 c -7.84,5.03 -16.73,7.47 -25.441,7.47 -15.488,0.01 -30.75,-7.7 -39.746,-21.72 l -5.18,-8.09 c -5.035,-7.83 -7.476,-16.72 -7.469,-25.43 -0.023,-15.49 7.692,-30.75 21.723,-39.75 l 695.647,-446.06 c 7.84,-5.04 16.73,-7.48 25.43,-7.47 15.49,-0.02 30.75,7.69 39.75,21.72 l -12.63,8.09 -12.62,8.1 c -3.3,-5.14 -8.79,-7.89 -14.5,-7.91 -3.18,0.01 -6.32,0.86 -9.24,2.72 l -695.646,446.06 c -5.144,3.3 -7.89,8.79 -7.914,14.5 0.004,3.18 0.856,6.33 2.723,9.24 l 5.18,8.09 c 3.293,5.13 8.785,7.88 14.492,7.91 3.187,-0.01 6.328,-0.86 9.246,-2.73 L 1146.36,2713.5 c 5.14,-3.29 7.89,-8.79 7.91,-14.49 -0.01,-3.19 -0.86,-6.33 -2.72,-9.25 l -5.18,-8.08 12.62,-8.1"/><path id="path54" style="fill:#dedee2;fill-opacity:1;fill-rule:nonzero;stroke:none" d="m 2371.7,1061.03 c -553.61,-172.69 -1142.4,136.12 -1315.08,689.73 -172.682,553.61 136.12,1142.39 689.73,1315.08 553.62,172.68 1142.4,-136.12 1315.09,-689.74 172.67,-553.61 -136.13,-1142.39 -689.74,-1315.07 z m -664.4,2132.86 c -624.98,-194.46 -973.57,-859.1 -778.23,-1483.81 192.07,-614.24 867.17,-968.31 1481.67,-777.111 624.98,194.461 973.58,859.111 778.23,1483.811 -192.07,614.24 -867.15,968.31 -1481.67,777.11"/><path id="path56" style="fill:#100f0d;fill-opacity:1;fill-rule:nonzero;stroke:none" d="m 2371.7,1061.03 -4.47,14.32 c -102.63,-32.02 -206.44,-47.24 -308.52,-47.24 -440.89,0.01 -849.58,284.01 -987.77,727.12 -32.01,102.63 -47.23,206.44 -47.23,308.52 0.01,440.89 284,849.58 727.11,987.77 102.63,32.01 206.44,47.23 308.52,47.23 440.89,-0.01 849.58,-284 987.78,-727.11 32,-102.63 47.22,-206.44 47.23,-308.52 -0.02,-440.89 -284,-849.58 -727.12,-987.77 l 4.47,-14.32 4.47,-14.32 c 455.94,142.25 748.19,562.68 748.17,1016.41 0.01,105.06 -15.67,211.91 -48.58,317.45 -142.25,455.94 -562.69,748.19 -1016.42,748.18 -105.07,0 -211.91,-15.67 -317.45,-48.59 -455.95,-142.25 -748.195,-562.68 -748.183,-1016.41 0,-105.06 15.673,-211.91 48.593,-317.45 142.24,-455.95 562.68,-748.198 1016.41,-748.191 105.07,0 211.91,15.671 317.46,48.601 z m -664.4,2132.86 -4.45,14.32 C 1189.12,3048.34 859.785,2574.82 859.797,2063.78 c 0,-118.54 17.723,-239.1 54.961,-358.18 79.371,-253.83 240.162,-463.77 444.832,-610.16 204.68,-146.389 453.31,-229.401 708.81,-229.409 115.37,0 232.14,16.938 346.8,52.617 513.73,159.872 843.06,633.392 843.05,1144.432 0,118.54 -17.72,239.1 -54.96,358.18 -79.37,253.83 -240.17,463.77 -444.83,610.16 -204.68,146.4 -453.31,229.4 -708.82,229.41 -115.37,0 -232.13,-16.94 -346.79,-52.62 l 4.45,-14.32 4.46,-14.32 c 111.72,34.76 225.45,51.26 337.88,51.26 248.98,0.01 491.67,-80.96 691.36,-223.81 199.71,-142.86 356.34,-347.45 433.66,-594.71 36.32,-116.16 53.59,-233.68 53.59,-349.23 -0.01,-498.19 -321.08,-959.96 -821.96,-1115.791 -111.72,-34.758 -225.45,-51.258 -337.89,-51.258 -248.98,-0.011 -491.66,80.957 -691.36,223.809 -199.7,142.86 -356.33,347.45 -433.649,594.71 -36.325,116.17 -53.594,233.68 -53.594,349.23 0.012,498.19 321.073,959.97 821.963,1115.79 l -4.46,14.32"/><path id="path58" style="fill:#f8c11d;fill-opacity:1;fill-rule:nonzero;stroke:none" d="m 2055.68,2078.29 h 0.01 c 20.44,19.51 52.83,18.76 72.34,-1.69 l 271.64,-284.59 c 19.51,-20.44 18.76,-52.83 -1.68,-72.34 -20.44,-19.5 -52.83,-18.75 -72.35,1.69 L 2054,2005.95 c -19.51,20.45 -18.76,52.83 1.68,72.34"/><path id="path60" style="fill:#100f0d;fill-opacity:1;fill-rule:nonzero;stroke:none" d="m 2055.68,2078.29 v -10 h 4.02 l 2.9,2.77 c 8,7.63 18.16,11.37 28.41,11.38 10.89,-0.01 21.67,-4.25 29.78,-12.74 l 271.64,-284.59 c 7.63,-8 11.38,-18.17 11.39,-28.42 -0.01,-10.9 -4.25,-21.68 -12.74,-29.79 -7.99,-7.62 -18.16,-11.37 -28.41,-11.38 -10.9,0.01 -21.68,4.25 -29.79,12.74 l -271.64,284.59 c -7.63,8.01 -11.38,18.18 -11.39,28.43 0.01,10.89 4.25,21.67 12.74,29.78 l -6.91,7.23 v -10 10 l -6.9,7.23 c -12.57,-11.99 -18.94,-28.15 -18.93,-44.24 -0.01,-15.15 5.63,-30.41 16.92,-42.24 l 271.64,-284.59 c 12,-12.57 28.16,-18.94 44.26,-18.93 15.14,-0.01 30.4,5.63 42.22,16.91 12.57,12 18.95,28.16 18.93,44.26 0.01,15.15 -5.63,30.41 -16.92,42.23 l -271.64,284.59 c -11.99,12.57 -28.16,18.95 -44.25,18.93 -15.15,0.01 -30.41,-5.63 -42.22,-16.92 l 6.9,-7.23 v 10 h -0.01 -4 l -2.9,-2.77 6.9,-7.23"/><path id="path62" style="fill:#ae2522;fill-opacity:1;fill-rule:nonzero;stroke:none" d="m 2114.66,2264.79 25.73,-8.51 -278.04,-840.46 -25.73,8.52 278.04,840.45"/><path id="path64" style="fill:#f8f9fc;fill-opacity:1;fill-rule:nonzero;stroke:none" d="m 2027.83,2053.7 c -5.37,17.23 4.24,35.56 21.47,40.93 17.22,5.37 35.54,-4.24 40.92,-21.47 5.38,-17.22 -4.23,-35.55 -21.46,-40.92 -17.24,-5.37 -35.56,4.23 -40.93,21.46"/><path id="path66" style="fill:#dedee2;fill-opacity:1;fill-rule:nonzero;stroke:none" d="m 692.148,2286.94 c -274,180.09 -350.125,548.19 -170.043,822.19 180.083,274 548.185,350.13 822.185,170.05 L 692.148,2286.94"/><path id="path68" style="fill:#100f0d;fill-opacity:1;fill-rule:nonzero;stroke:none" d="m 692.148,2286.94 8.239,12.54 c -169.149,111.17 -260.891,295.77 -260.91,484.13 0.007,109.07 30.761,219.28 95.164,317.28 111.172,169.15 295.769,260.89 484.129,260.91 109.07,-0.01 219.28,-30.76 317.28,-95.16 l 8.24,12.54 -12.54,8.23 -652.137,-992.23 12.535,-8.24 8.239,12.54 -8.239,-12.54 12.536,-8.23 660.376,1004.76 -12.53,8.24 c -102.99,67.69 -219.06,100.1 -333.76,100.09 -198.024,0.02 -392.293,-96.57 -509.2,-274.44 -67.691,-102.97 -100.101,-219.05 -100.093,-333.75 -0.024,-198.02 96.562,-392.3 274.433,-509.2 l 12.535,-8.24 8.239,12.54 -12.536,8.23"/><path id="path70" style="fill:#dedee2;fill-opacity:1;fill-rule:nonzero;stroke:none" d="m 1968.32,3463.07 c 118.19,305.83 461.93,457.94 767.76,339.74 305.84,-118.2 457.95,-461.94 339.75,-767.77 l -1107.51,428.03"/><path id="path72" style="fill:#100f0d;fill-opacity:1;fill-rule:nonzero;stroke:none" d="m 1968.32,3463.07 13.99,-5.41 c 88.69,229.54 307.75,370.21 539.9,370.23 69.35,0 139.85,-12.55 208.47,-39.07 229.54,-88.69 370.21,-307.75 370.23,-539.89 0,-69.36 -12.55,-139.87 -39.07,-208.48 l 13.99,-5.41 5.41,13.99 -1107.52,428.03 -5.4,-13.99 13.99,-5.41 -13.99,5.41 -5.41,-14 1121.5,-433.43 5.41,13.99 c 27.87,72.1 41.09,146.32 41.09,219.3 0.01,244.19 -148,474.55 -389.42,567.87 -72.1,27.87 -146.31,41.09 -219.28,41.09 -244.2,0.01 -474.56,-148 -567.89,-389.42 l -5.4,-13.99 13.99,-5.41 5.41,14"/><path id="path74" style="fill:#dedee2;fill-opacity:1;fill-rule:nonzero;stroke:none" d="m 1661.18,3546.41 -281.64,-171.3 c -24.67,-15.01 -56.82,-7.18 -71.83,17.5 l -8.11,13.32 c -15,24.67 -7.16,56.83 17.5,71.84 l 281.64,171.3 c 24.67,15 56.83,7.16 71.83,-17.5 l 8.11,-13.33 c 15,-24.67 7.17,-56.83 -17.5,-71.83"/><path id="path76" style="fill:#100f0d;fill-opacity:1;fill-rule:nonzero;stroke:none" d="m 1661.18,3546.41 -5.2,8.54 -281.64,-171.3 c -6.89,-4.19 -14.43,-6.16 -21.92,-6.17 -14.3,0.02 -28.2,7.22 -36.17,20.32 l -8.1,13.33 c -4.19,6.89 -6.16,14.42 -6.17,21.92 0.02,14.3 7.22,28.2 20.32,36.17 l 281.64,171.3 c 6.89,4.19 14.42,6.16 21.92,6.17 14.3,-0.02 28.2,-7.22 36.17,-20.32 l 8.1,-13.32 c 4.19,-6.9 6.16,-14.44 6.17,-21.92 -0.02,-14.31 -7.22,-28.21 -20.32,-36.18 l 5.2,-8.54 5.19,-8.55 c 19.27,11.72 29.94,32.27 29.93,53.27 0,11.01 -2.94,22.23 -9.08,32.31 l -8.11,13.33 c -11.71,19.26 -32.26,29.93 -53.25,29.92 -11.03,0 -22.24,-2.94 -32.32,-9.08 l -281.63,-171.3 c -19.26,-11.72 -29.94,-32.27 -29.93,-53.26 0,-11.03 2.95,-22.24 9.08,-32.32 l 8.11,-13.32 c 11.71,-19.26 32.26,-29.94 53.25,-29.93 11.02,0 22.24,2.95 32.32,9.08 l 281.63,171.3 -5.19,8.55"/><path id="path78" style="fill:#313543;fill-opacity:1;fill-rule:nonzero;stroke:none" d="m 1865.63,2794.22 -46.5,-14.5 -82.19,263.51 46.5,14.5 82.19,-263.51"/><path id="path80" style="fill:#313543;fill-opacity:1;fill-rule:nonzero;stroke:none" d="m 1523.48,2600.1 -33.02,-35.81 -202.94,187.11 33.02,35.81 202.94,-187.11"/><path id="path82" style="fill:#313543;fill-opacity:1;fill-rule:nonzero;stroke:none" d="m 1324.22,2260.91 -10.68,-47.52 -269.31,60.57 10.69,47.52 269.3,-60.57"/><path id="path84" style="fill:#313543;fill-opacity:1;fill-rule:nonzero;stroke:none" d="m 1321.26,1867.54 14.51,-46.5 -263.51,-82.2 -14.51,46.5 263.51,82.2"/><path id="path86" style="fill:#313543;fill-opacity:1;fill-rule:nonzero;stroke:none" d="m 1515.38,1525.38 35.82,-33.02 -187.11,-202.94 -35.81,33.03 187.1,202.93"/><path id="path88" style="fill:#313543;fill-opacity:1;fill-rule:nonzero;stroke:none" d="m 1854.58,1326.13 47.52,-10.69 -60.58,-269.3 -47.52,10.69 60.58,269.3"/><path id="path90" style="fill:#313543;fill-opacity:1;fill-rule:nonzero;stroke:none" d="m 2247.95,1323.16 46.5,14.52 82.19,-263.52 -46.49,-14.5 -82.2,263.5"/><path id="path92" style="fill:#313543;fill-opacity:1;fill-rule:nonzero;stroke:none" d="m 2590.1,1517.29 33.03,35.82 202.92,-187.11 -33.01,-35.82 -202.94,187.11"/><path id="path94" style="fill:#313543;fill-opacity:1;fill-rule:nonzero;stroke:none" d="m 2789.36,1856.47 10.69,47.53 269.3,-60.57 -10.69,-47.52 -269.3,60.56"/><path id="path96" style="fill:#313543;fill-opacity:1;fill-rule:nonzero;stroke:none" d="m 2792.31,2249.85 -14.5,46.51 263.51,82.19 14.51,-46.5 -263.52,-82.2"/><path id="path98" style="fill:#313543;fill-opacity:1;fill-rule:nonzero;stroke:none" d="m 2598.19,2592.01 -35.81,33.01 187.11,202.94 35.81,-33.01 -187.11,-202.94"/><path id="path100" style="fill:#313543;fill-opacity:1;fill-rule:nonzero;stroke:none" d="m 2259,2791.26 -47.52,10.69 60.57,269.3 47.53,-10.69 -60.58,-269.3"/><path id="path102" style="fill:#313543;fill-opacity:1;fill-rule:nonzero;stroke:none" d="m 1730.43,2867.91 -14.91,-6.44 -61.07,141.65 14.91,6.43 61.07,-141.64"/><path id="path104" style="fill:#313543;fill-opacity:1;fill-rule:nonzero;stroke:none" d="m 1648.18,2829.11 -14.16,-7.95 -75.54,134.48 14.16,7.95 75.54,-134.48"/><path id="path106" style="fill:#313543;fill-opacity:1;fill-rule:nonzero;stroke:none" d="m 1570.43,2781.92 -13.24,-9.38 -89.19,125.85 13.25,9.39 89.18,-125.86"/><path id="path108" style="fill:#313543;fill-opacity:1;fill-rule:nonzero;stroke:none" d="m 1498.05,2726.87 -12.2,-10.72 L 1384,2832 l 12.19,10.71 101.86,-115.84"/><path id="path110" style="fill:#313543;fill-opacity:1;fill-rule:nonzero;stroke:none" d="m 1372.45,2595.66 -9.7,-13.02 -123.71,92.13 9.7,13.02 123.71,-92.13"/><path id="path112" style="fill:#313543;fill-opacity:1;fill-rule:nonzero;stroke:none" d="m 1320.62,2520.93 -8.29,-13.96 -132.67,78.7 8.29,13.96 132.67,-78.7"/><path id="path114" style="fill:#313543;fill-opacity:1;fill-rule:nonzero;stroke:none" d="m 1276.88,2441.2 -6.78,-14.75 -140.17,64.39 6.78,14.76 140.17,-64.4"/><path id="path116" style="fill:#313543;fill-opacity:1;fill-rule:nonzero;stroke:none" d="m 1241.71,2357.33 -5.2,-15.38 -146.12,49.39 5.2,15.38 146.12,-49.39"/><path id="path118" style="fill:#313543;fill-opacity:1;fill-rule:nonzero;stroke:none" d="m 1198.55,2180.9 -1.88,-16.13 -153.21,17.94 1.88,16.12 153.21,-17.93"/><path id="path120" style="fill:#313543;fill-opacity:1;fill-rule:nonzero;stroke:none" d="m 1191.03,2090.27 -0.2,-16.24 -154.24,1.82 0.19,16.24 154.25,-1.82"/><path id="path122" style="fill:#313543;fill-opacity:1;fill-rule:nonzero;stroke:none" d="m 1193.01,1999.35 1.51,-16.17 -153.59,-14.31 -1.51,16.16 153.59,14.32"/><path id="path124" style="fill:#313543;fill-opacity:1;fill-rule:nonzero;stroke:none" d="m 1204.5,1909.13 3.18,-15.92 -151.24,-30.29 -3.19,15.93 151.25,30.28"/><path id="path126" style="fill:#313543;fill-opacity:1;fill-rule:nonzero;stroke:none" d="m 1255.33,1734.76 6.43,-14.92 -141.65,-61.07 -6.43,14.91 141.65,61.08"/><path id="path128" style="fill:#313543;fill-opacity:1;fill-rule:nonzero;stroke:none" d="m 1294.13,1652.5 7.95,-14.15 -134.49,-75.55 -7.95,14.15 134.49,75.55"/><path id="path130" style="fill:#313543;fill-opacity:1;fill-rule:nonzero;stroke:none" d="m 1341.31,1574.76 9.39,-13.25 -125.86,-89.19 -9.38,13.25 125.85,89.19"/><path id="path132" style="fill:#313543;fill-opacity:1;fill-rule:nonzero;stroke:none" d="m 1396.36,1502.37 10.72,-12.19 -115.84,-101.86 -10.72,12.2 115.84,101.85"/><path id="path134" style="fill:#313543;fill-opacity:1;fill-rule:nonzero;stroke:none" d="m 1527.58,1376.77 13.02,-9.7 -92.13,-123.71 -13.03,9.7 92.14,123.71"/><path id="path136" style="fill:#313543;fill-opacity:1;fill-rule:nonzero;stroke:none" d="m 1602.3,1324.94 13.96,-8.29 -78.69,-132.67 -13.97,8.3 78.7,132.66"/><path id="path138" style="fill:#313543;fill-opacity:1;fill-rule:nonzero;stroke:none" d="m 1682.04,1281.2 14.75,-6.78 -64.4,-140.16 -14.75,6.78 64.4,140.16"/><path id="path140" style="fill:#313543;fill-opacity:1;fill-rule:nonzero;stroke:none" d="m 1765.9,1246.04 15.39,-5.2 -49.4,-146.13 -15.38,5.19 49.39,146.14"/><path id="path142" style="fill:#313543;fill-opacity:1;fill-rule:nonzero;stroke:none" d="m 1942.34,1202.87 16.13,-1.88 -17.94,-153.21 -16.13,1.89 17.94,153.2"/><path id="path144" style="fill:#313543;fill-opacity:1;fill-rule:nonzero;stroke:none" d="m 2032.97,1195.35 16.24,-0.19 -1.83,-154.24 -16.23,0.18 1.82,154.25"/><path id="path146" style="fill:#313543;fill-opacity:1;fill-rule:nonzero;stroke:none" d="m 2123.89,1197.33 16.17,1.51 14.31,-153.59 -16.17,-1.5 -14.31,153.58"/><path id="path148" style="fill:#313543;fill-opacity:1;fill-rule:nonzero;stroke:none" d="m 2214.1,1208.82 15.93,3.18 30.28,-151.25 -15.92,-3.18 -30.29,151.25"/><path id="path150" style="fill:#313543;fill-opacity:1;fill-rule:nonzero;stroke:none" d="m 2388.49,1259.66 14.9,6.42 61.07,-141.65 -14.91,-6.42 -61.06,141.65"/><path id="path152" style="fill:#313543;fill-opacity:1;fill-rule:nonzero;stroke:none" d="m 2470.73,1298.45 14.16,7.96 75.55,-134.5 -14.16,-7.95 -75.55,134.49"/><path id="path154" style="fill:#313543;fill-opacity:1;fill-rule:nonzero;stroke:none" d="m 2548.48,1345.63 13.25,9.39 89.19,-125.85 -13.25,-9.39 -89.19,125.85"/><path id="path156" style="fill:#313543;fill-opacity:1;fill-rule:nonzero;stroke:none" d="m 2620.87,1400.68 12.19,10.73 101.85,-115.84 -12.19,-10.73 -101.85,115.84"/><path id="path158" style="fill:#313543;fill-opacity:1;fill-rule:nonzero;stroke:none" d="m 2746.46,1531.89 9.7,13.03 123.71,-92.13 -9.69,-13.02 -123.72,92.12"/><path id="path160" style="fill:#313543;fill-opacity:1;fill-rule:nonzero;stroke:none" d="m 2798.3,1606.62 8.28,13.97 132.67,-78.7 -8.28,-13.96 -132.67,78.69"/><path id="path162" style="fill:#313543;fill-opacity:1;fill-rule:nonzero;stroke:none" d="m 2842.03,1686.36 6.79,14.75 140.16,-64.39 -6.77,-14.76 -140.18,64.4"/><path id="path164" style="fill:#313543;fill-opacity:1;fill-rule:nonzero;stroke:none" d="m 2877.2,1770.22 5.2,15.4 146.13,-49.4 -5.2,-15.39 -146.13,49.39"/><path id="path166" style="fill:#313543;fill-opacity:1;fill-rule:nonzero;stroke:none" d="m 2920.36,1946.66 1.89,16.13 153.21,-17.94 -1.89,-16.12 -153.21,17.93"/><path id="path168" style="fill:#313543;fill-opacity:1;fill-rule:nonzero;stroke:none" d="m 2927.89,2037.29 0.19,16.24 154.24,-1.82 -0.19,-16.24 -154.24,1.82"/><path id="path170" style="fill:#313543;fill-opacity:1;fill-rule:nonzero;stroke:none" d="m 2925.9,2128.21 -1.51,16.17 153.59,14.31 1.51,-16.17 -153.59,-14.31"/><path id="path172" style="fill:#313543;fill-opacity:1;fill-rule:nonzero;stroke:none" d="m 2914.41,2218.43 -3.18,15.92 151.25,30.29 3.18,-15.92 -151.25,-30.29"/><path id="path174" style="fill:#313543;fill-opacity:1;fill-rule:nonzero;stroke:none" d="m 2863.58,2392.81 -6.42,14.9 141.64,61.08 6.43,-14.91 -141.65,-61.07"/><path id="path176" style="fill:#313543;fill-opacity:1;fill-rule:nonzero;stroke:none" d="m 2824.79,2475.06 -7.95,14.15 134.48,75.55 7.95,-14.16 -134.48,-75.54"/><path id="path178" style="fill:#313543;fill-opacity:1;fill-rule:nonzero;stroke:none" d="m 2777.6,2552.8 -9.39,13.25 125.86,89.19 9.39,-13.25 -125.86,-89.19"/><path id="path180" style="fill:#313543;fill-opacity:1;fill-rule:nonzero;stroke:none" d="m 2722.55,2625.19 -10.72,12.19 115.85,101.86 10.71,-12.19 -115.84,-101.86"/><path id="path182" style="fill:#313543;fill-opacity:1;fill-rule:nonzero;stroke:none" d="m 2591.34,2750.79 -13.03,9.69 92.14,123.72 13.02,-9.7 -92.13,-123.71"/><path id="path184" style="fill:#313543;fill-opacity:1;fill-rule:nonzero;stroke:none" d="m 2516.61,2802.62 -13.96,8.28 78.7,132.67 13.96,-8.28 -78.7,-132.67"/><path id="path186" style="fill:#313543;fill-opacity:1;fill-rule:nonzero;stroke:none" d="m 2436.88,2846.36 -14.76,6.78 64.4,140.17 14.76,-6.79 -64.4,-140.16"/><path id="path188" style="fill:#313543;fill-opacity:1;fill-rule:nonzero;stroke:none" d="m 2353.01,2881.52 -15.38,5.2 49.39,146.13 15.38,-5.2 -49.39,-146.13"/><path id="path190" style="fill:#313543;fill-opacity:1;fill-rule:nonzero;stroke:none" d="m 2176.57,2924.69 -16.12,1.88 17.93,153.21 16.13,-1.89 -17.94,-153.2"/><path id="path192" style="fill:#313543;fill-opacity:1;fill-rule:nonzero;stroke:none" d="m 2085.95,2932.21 -16.24,0.19 1.82,154.25 16.23,-0.19 -1.81,-154.25"/><path id="path194" style="fill:#313543;fill-opacity:1;fill-rule:nonzero;stroke:none" d="m 1995.02,2930.22 -16.16,-1.5 -14.31,153.58 16.16,1.51 14.31,-153.59"/><path id="path196" style="fill:#313543;fill-opacity:1;fill-rule:nonzero;stroke:none" d="m 1904.81,2918.74 -15.92,-3.19 -30.29,151.25 15.92,3.19 30.29,-151.25"/><path id="path198" style="fill:#c6c4c8;fill-opacity:1;fill-rule:nonzero;stroke:none" d="m 687.957,2307.88 c -161.211,111.92 -248.461,292.04 -248.48,475.73 0.007,108.99 30.722,219.13 95.027,317.07 L 1000.39,2783.24 687.957,2307.88"/><path id="path200" style="fill:#100f0d;fill-opacity:1;fill-rule:nonzero;stroke:none" d="m 692.148,2286.94 c -274,180.09 -350.125,548.19 -170.043,822.19 l 12.399,-8.45 c -64.305,-97.94 -95.02,-208.08 -95.027,-317.07 0.019,-183.69 87.269,-363.81 248.48,-475.73 l 312.433,475.36 12.36,-8.42 -320.602,-487.88"/><path id="path202" style="fill:#c6c4c8;fill-opacity:1;fill-rule:nonzero;stroke:none" d="m 3067.07,3054.51 -537.97,207.91 200.86,526.68 c 0.23,-0.09 0.48,-0.19 0.72,-0.28 229.54,-88.69 370.21,-307.75 370.23,-539.89 0,-64.63 -10.9,-130.26 -33.84,-194.42"/><path id="path204" style="fill:#100f0d;fill-opacity:1;fill-rule:nonzero;stroke:none" d="m 3066.05,3032.31 -541.9,217.12 4.95,12.99 537.97,-207.91 c 22.94,64.16 33.84,129.79 33.84,194.42 -0.02,232.14 -140.69,451.2 -370.23,539.89 -0.24,0.09 -0.49,0.19 -0.72,0.28 l 5.74,15.07 c 304.38,-121.92 452.28,-467.49 330.35,-771.86"/><path id="path206" style="fill:#c6c4c8;fill-opacity:1;fill-rule:nonzero;stroke:none" d="m 1352.42,3377.48 c -14.3,0.02 -28.2,7.22 -36.17,20.32 l -8.1,13.33 c -4.19,6.89 -6.16,14.42 -6.17,21.92 0.02,14.3 7.22,28.2 20.32,36.17 l 142.37,86.6 51.51,-85.9 -141.84,-86.27 c -6.89,-4.19 -14.43,-6.16 -21.92,-6.17"/><path id="path208" style="fill:#100f0d;fill-opacity:1;fill-rule:nonzero;stroke:none" d="m 1349.87,3364.63 c -15.08,0 -29.79,7.64 -38.2,21.46 l -16.03,26.36 c -12.82,21.07 -6.12,48.54 14.95,61.35 l 138.45,83.43 10.57,7.02 5.06,-8.43 -142.37,-86.6 c -13.1,-7.97 -20.3,-21.87 -20.32,-36.17 0.01,-7.5 1.98,-15.03 6.17,-21.92 l 8.1,-13.33 c 7.97,-13.1 21.87,-20.3 36.17,-20.32 7.49,0.01 15.03,1.98 21.92,6.17 l 141.84,86.27 5.46,-9.1 -148.61,-89.68 c -7.25,-4.41 -15.26,-6.51 -23.16,-6.51"/></g></g></svg>